<svg xmlns="http://www.w3.org/2000/svg" width="100" height="51" viewBox="0 0 350 145.20063105213748" class="looka-1j8o68f h-8 sm:h-18 w-auto"><defs id="SvgjsDefs1404"></defs><g id="SvgjsG1405" data-featurekey="X3o6dM-0" transform="matrix(8.978582333534629,0,0,8.978582333534629,-1.9752909122916695,-68.0227306621996)" fill="#122d42"><path d="M8.94 11.48 q0.1 -0.3 0.24 -0.77 t0.36 -0.9 t0.53 -0.74 t0.75 -0.31 q0.14 0 0.27 0.2 t0.13 0.7 q0 0.66 -0.14 1.29 t-0.3 1.27 t-0.3 1.3 t-0.14 1.36 q0 0.18 0.02 0.65 t0.08 1.07 t0.18 1.25 t0.33 1.19 t0.52 0.89 t0.77 0.35 q0.7 0 1.17 -0.62 t0.84 -1.63 t0.68 -2.29 t0.69 -2.61 t0.87 -2.58 t1.23 -2.21 q0.08 -0.12 0.31 -0.33 t0.48 -0.34 t0.44 -0.08 t0.19 0.43 q0 0.28 -0.08 0.55 t-0.18 0.51 q-0.44 1.56 -0.77 2.69 t-0.58 1.96 t-0.45 1.45 t-0.38 1.18 q-0.24 0.7 -0.59 1.62 t-0.87 1.75 t-1.22 1.41 t-1.6 0.58 q-1 0 -1.62 -0.52 t-0.97 -1.31 t-0.49 -1.72 t-0.16 -1.73 q-0.3 0.64 -0.79 1.45 t-1.12 1.51 t-1.4 1.18 t-1.63 0.48 q-0.92 0 -1.58 -0.58 t-1.11 -1.5 t-0.71 -2.06 t-0.4 -2.27 t-0.18 -2.12 t-0.04 -1.61 t0.08 -1.22 t0.36 -1.16 q0.02 -0.04 0.1 -0.15 t0.19 -0.22 t0.21 -0.19 t0.2 -0.08 t0.16 0.16 t0.06 0.4 q0 0.56 -0.13 1.13 t-0.13 1.33 q0 0.38 0.06 1.17 t0.19 1.75 t0.34 1.97 t0.54 1.85 t0.77 1.37 t1.02 0.53 q0.66 0 1.23 -0.47 t1.04 -1.21 t0.86 -1.66 t0.68 -1.82 t0.51 -1.68 t0.38 -1.24 z M19.200000000000003 16.740000000000002 q-0.04 0.16 -0.17 0.23 t-0.27 0.04 t-0.22 -0.14 t0 -0.29 l0.12 -0.34 q-0.18 -0.18 -0.2 -0.42 t0.08 -0.45 t0.29 -0.36 t0.43 -0.15 q0.42 0 0.46 0.31 t-0.12 0.69 q0.12 0.06 0.39 0.02 t0.51 -0.05 t0.4 0.09 t0.08 0.46 t-0.17 0.86 t-0.13 0.95 t0 0.77 t0.22 0.32 q0.12 0 0.31 -0.35 t0.39 -0.81 t0.36 -0.93 t0.2 -0.71 q0.04 -0.2 0.17 -0.28 t0.27 -0.07 t0.23 0.12 t0.07 0.31 q-0.02 0.1 -0.1 0.43 t-0.22 0.74 t-0.34 0.86 t-0.48 0.83 t-0.62 0.61 t-0.76 0.21 q-0.48 -0.02 -0.7 -0.43 t-0.28 -0.98 t0.03 -1.21 t0.25 -1.12 q-0.1 0.02 -0.2 0.02 l-0.2 0 q-0.06 0.1 -0.08 0.22 z M22.180000000000003 15.84 q0 -0.48 0.25 -0.66 t0.55 -0.14 t0.52 0.26 t0.16 0.54 q-0.08 0.36 -0.15 0.9 t-0.09 1.04 t0.03 0.86 t0.23 0.36 q0.12 0 0.29 -0.31 t0.33 -0.73 t0.3 -0.84 t0.18 -0.64 q0.06 -0.2 0.2 -0.27 t0.27 -0.04 t0.22 0.15 t0.03 0.3 q-0.04 0.12 -0.13 0.45 t-0.23 0.73 t-0.33 0.83 t-0.44 0.76 t-0.55 0.51 t-0.66 0.08 q-0.54 -0.16 -0.77 -0.59 t-0.27 -1 t0.01 -1.24 t0.05 -1.31 z M24.460000000000004 13.1 q0.04 0.22 -0.05 0.41 t-0.27 0.34 t-0.42 0.25 t-0.5 0.14 q-0.5 0.06 -0.98 -0.1 t-0.54 -0.58 q-0.08 -0.44 0.27 -0.75 t0.93 -0.41 t1.04 0.09 t0.52 0.61 z M25.000000000000004 13.440000000000001 q0 -0.14 0.01 -0.27 t0.01 -0.23 q0 -0.48 0.26 -0.67 t0.56 -0.17 t0.53 0.22 t0.17 0.52 l-0.1 0.52 l0.48 0 q0.38 0 0.55 0.13 t0.17 0.28 t-0.18 0.27 t-0.5 0.12 l-0.6 0 q-0.08 0.72 -0.14 1.59 t-0.08 1.64 t0.02 1.28 t0.18 0.51 q0.12 0 0.33 -0.36 t0.43 -0.83 t0.4 -0.92 t0.24 -0.61 q0.04 -0.18 0.18 -0.24 t0.27 -0.03 t0.22 0.14 t0.03 0.29 q-0.12 0.4 -0.32 1.04 t-0.5 1.24 t-0.72 1.04 t-1 0.44 q-0.38 0 -0.62 -0.3 t-0.36 -0.79 t-0.15 -1.13 t-0.01 -1.32 t0.08 -1.37 t0.1 -1.27 l-0.48 0 q-0.32 0 -0.49 -0.12 t-0.18 -0.26 t0.15 -0.26 t0.52 -0.12 l0.54 0 z M31.040000000000006 16.5 q-0.16 0.22 -0.4 0.36 t-0.52 0.23 t-0.57 0.13 t-0.51 0.06 q-0.06 0.42 -0.07 0.82 t0.04 0.72 t0.16 0.54 t0.31 0.28 q0.26 0.08 0.56 -0.09 t0.58 -0.47 t0.54 -0.7 t0.46 -0.77 t0.34 -0.68 t0.18 -0.45 q0.06 -0.18 0.19 -0.24 t0.25 -0.04 t0.2 0.13 t0.04 0.29 q-0.04 0.12 -0.14 0.47 t-0.29 0.79 t-0.46 0.91 t-0.65 0.86 t-0.87 0.65 t-1.09 0.26 q-0.72 0 -1.12 -0.5 t-0.54 -1.26 t-0.05 -1.63 t0.36 -1.63 t0.68 -1.26 t0.91 -0.5 q0.48 0 0.85 0.33 t0.57 0.77 t0.23 0.9 t-0.17 0.72 z M29.800000000000004 14.719999999999999 q-0.14 0.06 -0.3 0.51 t-0.3 1.09 q0.22 0 0.44 -0.05 t0.32 -0.21 q0.08 -0.12 0.1 -0.35 t-0.01 -0.47 t-0.1 -0.4 t-0.15 -0.12 z M32.48000000000001 11.64 q0 -0.48 0.26 -0.67 t0.57 -0.17 t0.54 0.22 t0.17 0.52 q-0.04 0.24 -0.13 0.94 t-0.17 1.61 t-0.14 1.89 t-0.07 1.81 t0.06 1.36 t0.27 0.53 q0.12 0 0.33 -0.44 t0.42 -1 t0.39 -1.09 t0.24 -0.69 q0.04 -0.18 0.18 -0.24 t0.27 -0.03 t0.22 0.14 t0.03 0.29 q-0.12 0.4 -0.32 1.12 t-0.5 1.42 t-0.72 1.22 t-1 0.52 q-0.54 0 -0.81 -0.57 t-0.37 -1.45 t-0.07 -1.96 t0.11 -2.11 t0.16 -1.88 t0.08 -1.29 z M38.92000000000001 22.42 q0 0.4 -0.26 0.72 t-0.57 0.48 t-0.56 0.12 t-0.21 -0.38 q0.02 -0.26 0.05 -0.74 t0.07 -1.08 t0.07 -1.29 t0.07 -1.39 q-0.2 0.54 -0.56 0.92 q-0.2 0.2 -0.47 0.22 t-0.52 -0.1 t-0.45 -0.35 t-0.26 -0.53 t-0.08 -0.8 t-0.02 -1.08 t0.02 -1.19 t0.02 -1.17 q0.02 -0.36 0.27 -0.53 t0.55 -0.2 t0.55 0.08 t0.23 0.33 q-0.04 0.64 -0.1 1.38 t-0.11 1.39 t-0.04 1.1 t0.13 0.49 t0.23 -0.16 t0.22 -0.54 t0.21 -0.75 t0.17 -0.8 t0.12 -0.7 t0.05 -0.45 q0.24 -0.12 0.31 0 t0.13 0.44 q0.02 0.08 0.01 0.39 t-0.08 0.74 t-0.2 0.93 t-0.33 0.94 q0.06 -1.1 0.1 -2.09 t0.06 -1.57 q0 -0.24 0.24 -0.37 t0.52 -0.14 t0.5 0.11 t0.2 0.36 q-0.06 0.42 -0.1 1.08 t-0.07 1.41 t-0.05 1.52 t-0.03 1.43 t-0.02 1.15 t-0.01 0.67 z"></path></g></svg>